<svg width="38" height="36" viewBox="0 0 38 36" fill="none" xmlns="http://www.w3.org/2000/svg">
<path d="M18.2289 18.7071C18.6195 18.3166 18.6195 17.6834 18.2289 17.2929L11.865 10.9289C11.4744 10.5384 10.8413 10.5384 10.4508 10.9289C10.0602 11.3195 10.0602 11.9526 10.4508 12.3431L16.1076 18L10.4508 23.6569C10.0602 24.0474 10.0602 24.6805 10.4508 25.0711C10.8413 25.4616 11.4744 25.4616 11.865 25.0711L18.2289 18.7071ZM15.9355 19H17.5218V17H15.9355V19Z" fill="#4BA08C"/>
<path d="M30.5093 19.0306C31.1112 18.4614 31.1112 17.5386 30.5093 16.9694L20.7001 7.69414C20.0982 7.12496 19.1223 7.12496 18.5203 7.69414C17.9184 8.26332 17.9184 9.18614 18.5203 9.75531L27.2396 18L18.5203 26.2447C17.9184 26.8139 17.9184 27.7367 18.5203 28.3059C19.1223 28.875 20.0982 28.875 20.7001 28.3059L30.5093 19.0306ZM27.0399 19.4575L29.4194 19.4575L29.4194 16.5425L27.0399 16.5425L27.0399 19.4575Z" fill="#4BA08C"/>
<path d="M37.5 18C37.5 27.6399 29.2431 35.5 19 35.5C8.75692 35.5 0.5 27.6399 0.5 18C0.5 8.36014 8.75692 0.5 19 0.5C29.2431 0.5 37.5 8.36014 37.5 18Z" stroke="#4BA08C"/>
</svg>
